<?xml version="1.0" encoding="UTF-8" standalone="no"?>
<!DOCTYPE svg PUBLIC "-//W3C//DTD SVG 1.1//EN"
 "http://www.w3.org/Graphics/SVG/1.1/DTD/svg11.dtd">
<!-- Generated by graphviz version 12.1.0 (20240811.2233)
 -->
<!-- Pages: 1 -->
<svg width="1177pt" height="222pt"
 viewBox="0.00 0.00 1177.20 221.72" xmlns="http://www.w3.org/2000/svg" xmlns:xlink="http://www.w3.org/1999/xlink">
<g id="graph0" class="graph" transform="scale(1 1) rotate(0) translate(4 217.72)">
<polygon fill="white" stroke="none" points="-4,4 -4,-217.72 1173.2,-217.72 1173.2,4 -4,4"/>
<!-- Clearing -->
<g id="node1" class="node">
<title>Clearing</title>
<ellipse fill="#b2dfee" stroke="#b2dfee" cx="584.6" cy="-168.47" rx="584.6" ry="45.25"/>
<text text-anchor="start" x="559.48" y="-184.17" font-family="Times New Roman,serif" font-weight="bold" font-size="14.00">Clearing</text>
<text text-anchor="start" x="179.23" y="-170.17" font-family="Times New Roman,serif" font-size="14.00">You are in a forest clearing. You see a path leading north to a cave and another path leading east to the mountain pass. There is a key on the ground.</text>
<text text-anchor="start" x="582.73" y="-156.17" font-family="Times New Roman,serif" font-size="14.00"> </text>
<text text-anchor="start" x="517.85" y="-142.17" font-family="Times New Roman,serif" font-size="14.00">Characters: Temp player</text>
</g>
<!-- Cave -->
<g id="node2" class="node">
<title>Cave</title>
<ellipse fill="#b2dfee" stroke="#b2dfee" cx="281.6" cy="-35.36" rx="142.31" ry="35.36"/>
<text text-anchor="start" x="266.98" y="-44.06" font-family="Times New Roman,serif" font-weight="bold" font-size="14.00">Cave</text>
<text text-anchor="start" x="188.98" y="-30.06" font-family="Times New Roman,serif" font-size="14.00">Inside the cave, you find a sword.</text>
<text text-anchor="start" x="279.73" y="-16.06" font-family="Times New Roman,serif" font-size="14.00"> </text>
</g>
<!-- Clearing&#45;&gt;Cave -->
<g id="edge1" class="edge">
<title>Clearing&#45;&gt;Cave</title>
<path fill="none" stroke="black" d="M482.86,-123.44C443.26,-106.31 398.56,-86.96 361.36,-70.87"/>
<polygon fill="black" stroke="black" points="363.03,-67.78 352.46,-67.02 360.25,-74.2 363.03,-67.78"/>
<text text-anchor="middle" x="448.85" y="-91.91" font-family="Times New Roman,serif" font-size="14.00">North</text>
</g>
<!-- Mountain Pass -->
<g id="node3" class="node">
<title>Mountain Pass</title>
<ellipse fill="#b2dfee" stroke="#b2dfee" cx="732.6" cy="-35.36" rx="290.8" ry="35.36"/>
<text text-anchor="start" x="689.1" y="-44.06" font-family="Times New Roman,serif" font-weight="bold" font-size="14.00">Mountain Pass</text>
<text text-anchor="start" x="534.98" y="-30.06" font-family="Times New Roman,serif" font-size="14.00">You have made it through the mountain pass. Congratulations, you win!</text>
<text text-anchor="start" x="730.73" y="-16.06" font-family="Times New Roman,serif" font-size="14.00"> </text>
</g>
<!-- Clearing&#45;&gt;Mountain Pass -->
<g id="edge2" class="edge">
<title>Clearing&#45;&gt;Mountain Pass</title>
<path fill="none" stroke="black" d="M630.57,-123.13C642.7,-111.74 655.89,-99.62 668.35,-88.71 672.4,-85.16 676.64,-81.54 680.92,-77.93"/>
<polygon fill="black" stroke="black" points="683.14,-80.64 688.58,-71.55 678.65,-75.26 683.14,-80.64"/>
<text text-anchor="middle" x="679.98" y="-91.91" font-family="Times New Roman,serif" font-size="14.00">East</text>
</g>
<!-- Cave&#45;&gt;Clearing -->
<g id="edge3" class="edge">
<title>Cave&#45;&gt;Clearing</title>
<path fill="none" stroke="black" d="M387.12,-59.49C414.3,-67.16 443.07,-76.85 468.6,-88.71 485.24,-96.44 502.13,-106.44 517.69,-116.71"/>
<polygon fill="black" stroke="black" points="515.69,-119.58 525.94,-122.27 519.6,-113.77 515.69,-119.58"/>
<text text-anchor="middle" x="514.79" y="-91.91" font-family="Times New Roman,serif" font-size="14.00">South</text>
</g>
<!-- Mountain Pass&#45;&gt;Clearing -->
<g id="edge4" class="edge">
<title>Mountain Pass&#45;&gt;Clearing</title>
<path fill="none" stroke="black" d="M716.5,-71C709.91,-82.78 701.49,-95.42 691.6,-105.21 687.6,-109.17 683.29,-112.98 678.79,-116.61"/>
<polygon fill="black" stroke="black" points="676.94,-113.62 671.12,-122.47 681.19,-119.18 676.94,-113.62"/>
<text text-anchor="middle" x="717.8" y="-91.91" font-family="Times New Roman,serif" font-size="14.00">West</text>
</g>
</g>
</svg>
